<?xml version="1.0" encoding="UTF-8" standalone="no" ?>
<!DOCTYPE svg PUBLIC "-//W3C//DTD SVG 1.1//EN" "http://www.w3.org/Graphics/SVG/1.1/DTD/svg11.dtd">
<svg xmlns="http://www.w3.org/2000/svg" xmlns:xlink="http://www.w3.org/1999/xlink" version="1.1" width="350" height="350" viewBox="0 0 350 350" xml:space="preserve">
<desc>Created with Fabric.js 1.7.22</desc>
<defs>
</defs>
<g id="icon" style="stroke: none; stroke-width: 1; stroke-dasharray: none; stroke-linecap: butt; stroke-linejoin: miter; stroke-miterlimit: 10; fill: none; fill-rule: nonzero; opacity: 1;" transform="translate(-1.9444444444444287 -1.9444444444444287) scale(3.89 3.89)" >
	<path d="M 49.863 56.811 h 37.922 C 89.19 53.979 90 50.8 90 47.425 c 0 -11.695 -9.481 -21.176 -21.176 -21.176 c -1.03 0 -2.035 0.099 -3.025 0.241 C 63.96 16.669 55.355 9.232 45 9.232 S 26.04 16.669 24.201 26.49 c -0.991 -0.142 -1.995 -0.241 -3.025 -0.241 C 9.481 26.249 0 35.73 0 47.425 c 0 3.375 0.81 6.554 2.215 9.386 H 49.863" style="stroke: none; stroke-width: 1; stroke-dasharray: none; stroke-linecap: butt; stroke-linejoin: miter; stroke-miterlimit: 10; fill: rgb(215,222,237); fill-rule: nonzero; opacity: 1;" transform=" matrix(1 0 0 1 0 0) " stroke-linecap="round" />
	<path d="M 70.334 70.64 l -0.553 0.553 c -0.854 0.854 -2.251 0.854 -3.105 0 l -7.636 -7.636 c -0.854 -0.854 -0.854 -2.251 0 -3.105 l 0.553 -0.553 c 0.854 -0.854 2.251 -0.854 3.105 0 l 7.636 7.636 C 71.187 68.389 71.187 69.786 70.334 70.64 z" style="stroke: none; stroke-width: 1; stroke-dasharray: none; stroke-linecap: butt; stroke-linejoin: miter; stroke-miterlimit: 10; fill: rgb(91,93,110); fill-rule: nonzero; opacity: 1;" transform=" matrix(1 0 0 1 0 0) " stroke-linecap="round" />
	<path d="M 68.229 72.833 c -0.855 0 -1.658 -0.331 -2.26 -0.934 l -7.636 -7.636 c -1.246 -1.246 -1.246 -3.272 0 -4.519 l 0.553 -0.553 c 1.246 -1.246 3.273 -1.246 4.52 0 l 7.636 7.636 c 1.246 1.246 1.246 3.272 0 4.519 l -0.553 0.553 C 69.886 72.502 69.084 72.833 68.229 72.833 z M 61.146 60.257 c -0.307 0 -0.612 0.116 -0.846 0.35 l -0.553 0.553 c -0.466 0.466 -0.466 1.225 0 1.69 l 7.636 7.636 c 0.449 0.449 1.242 0.45 1.691 0 l 0.553 -0.553 c 0.466 -0.466 0.466 -1.225 0 -1.69 l -7.636 -7.636 C 61.758 60.373 61.452 60.257 61.146 60.257 z" style="stroke: none; stroke-width: 1; stroke-dasharray: none; stroke-linecap: butt; stroke-linejoin: miter; stroke-miterlimit: 10; fill: rgb(91,93,110); fill-rule: nonzero; opacity: 1;" transform=" matrix(1 0 0 1 0 0) " stroke-linecap="round" />
	<rect x="56.34" y="55.4" rx="0" ry="0" width="2" height="5.6" style="stroke: none; stroke-width: 1; stroke-dasharray: none; stroke-linecap: butt; stroke-linejoin: miter; stroke-miterlimit: 10; fill: rgb(91,93,110); fill-rule: nonzero; opacity: 1;" transform=" matrix(0.7071 -0.7071 0.7071 0.7071 -24.3578 57.5896) "/>
	<circle cx="45.284" cy="46.144" r="14.254" style="stroke: none; stroke-width: 1; stroke-dasharray: none; stroke-linecap: butt; stroke-linejoin: miter; stroke-miterlimit: 10; fill: rgb(255,255,255); fill-rule: nonzero; opacity: 1;" transform="  matrix(1 0 0 1 0 0) "/>
	<path d="M 45.28 61.387 c -3.906 0 -7.813 -1.487 -10.787 -4.461 c -5.947 -5.948 -5.947 -15.626 0 -21.573 c 2.881 -2.881 6.711 -4.468 10.786 -4.468 c 4.074 0 7.905 1.587 10.786 4.468 l 0 0 l 0 0 c 5.947 5.947 5.947 15.625 0 21.573 C 53.093 59.899 49.187 61.387 45.28 61.387 z M 45.28 32.885 c -3.541 0 -6.869 1.379 -9.372 3.882 c -5.167 5.167 -5.168 13.576 0 18.745 c 5.168 5.166 13.578 5.168 18.745 0 s 5.167 -13.577 0 -18.745 l 0 0 C 52.149 34.264 48.82 32.885 45.28 32.885 z" style="stroke: none; stroke-width: 1; stroke-dasharray: none; stroke-linecap: butt; stroke-linejoin: miter; stroke-miterlimit: 10; fill: rgb(91,93,110); fill-rule: nonzero; opacity: 1;" transform=" matrix(1 0 0 1 0 0) " stroke-linecap="round" />
	<path d="M 45.28 55.873 c -0.552 0 -1 -0.447 -1 -1 V 44.315 c 0 -0.552 0.448 -1 1 -1 s 1 0.448 1 1 v 10.558 C 46.28 55.426 45.833 55.873 45.28 55.873 z" style="stroke: none; stroke-width: 1; stroke-dasharray: none; stroke-linecap: butt; stroke-linejoin: miter; stroke-miterlimit: 10; fill: rgb(165,215,110); fill-rule: nonzero; opacity: 1;" transform=" matrix(1 0 0 1 0 0) " stroke-linecap="round" />
	<path d="M 50.063 55.873 c -0.553 0 -1 -0.447 -1 -1 V 38.816 c 0 -0.552 0.447 -1 1 -1 s 1 0.448 1 1 v 16.057 C 51.063 55.426 50.615 55.873 50.063 55.873 z" style="stroke: none; stroke-width: 1; stroke-dasharray: none; stroke-linecap: butt; stroke-linejoin: miter; stroke-miterlimit: 10; fill: rgb(0,210,255); fill-rule: nonzero; opacity: 1;" transform=" matrix(1 0 0 1 0 0) " stroke-linecap="round" />
	<path d="M 40.556 55.873 c -0.552 0 -1 -0.447 -1 -1 v -5.278 c 0 -0.553 0.448 -1 1 -1 s 1 0.447 1 1 v 5.278 C 41.556 55.426 41.108 55.873 40.556 55.873 z" style="stroke: none; stroke-width: 1; stroke-dasharray: none; stroke-linecap: butt; stroke-linejoin: miter; stroke-miterlimit: 10; fill: rgb(255,100,100); fill-rule: nonzero; opacity: 1;" transform=" matrix(1 0 0 1 0 0) " stroke-linecap="round" />
</g>
</svg>